<svg width="24" height="24" viewBox="0 0 24 24" fill="none" xmlns="http://www.w3.org/2000/svg">
<path d="M14.0342 3.62874L6.53264 11.3242C6.40089 11.4594 6.32715 11.6407 6.32715 11.8295C6.32715 12.0182 6.40089 12.1995 6.53264 12.3347L14.0342 20.0331C14.0955 20.0961 14.1689 20.1462 14.25 20.1804C14.331 20.2146 14.4181 20.2322 14.5061 20.2322C14.5941 20.2322 14.6811 20.2146 14.7622 20.1804C14.8432 20.1462 14.9166 20.0961 14.978 20.0331C15.1043 19.9038 15.1749 19.7303 15.1749 19.5496C15.1749 19.3689 15.1043 19.1953 14.978 19.0661L7.92379 11.8295L14.978 4.5943C15.1038 4.4651 15.1742 4.29187 15.1742 4.11152C15.1742 3.93117 15.1038 3.75794 14.978 3.62874C14.9166 3.56571 14.8432 3.51561 14.7622 3.4814C14.6811 3.44719 14.5941 3.42957 14.5061 3.42957C14.4181 3.42957 14.331 3.44719 14.25 3.4814C14.1689 3.51561 14.0955 3.56571 14.0342 3.62874Z" fill="#D0D0D0"/>
</svg>
