<svg width="80" height="62" viewBox="0 0 80 62" fill="none" xmlns="http://www.w3.org/2000/svg">
<path fill-rule="evenodd" clip-rule="evenodd" d="M30.1159 19.7187V21.0924L29.9651 20.872C29.8821 20.7507 29.8059 20.6515 29.7957 20.6515C29.7854 20.6515 29.2177 20.7691 28.5341 20.9129C27.8505 21.0566 27.1173 21.2046 26.9047 21.2417C26.5507 21.3035 24.8003 21.6765 22.7123 22.1353C21.4678 22.4087 20.8724 22.5327 18.0739 23.1013C16.5368 23.4135 15.4753 23.6566 15.4127 23.7108C15.3194 23.7916 15.3087 23.9383 15.3087 25.1412C15.3087 26.3594 15.3185 26.4904 15.4162 26.5783C15.4754 26.6315 15.964 26.7803 16.5022 26.909C17.0402 27.0378 17.5404 27.1651 17.6136 27.192C17.7238 27.2325 17.477 27.3624 16.1858 27.9436C15.3272 28.3302 14.1699 28.8525 13.6139 29.1044C13.0578 29.3564 11.8269 29.9115 10.8784 30.3381C9.92988 30.7647 9.12042 31.1573 9.07951 31.2106C8.97538 31.3464 8.97264 34.36 9.07653 34.4632C9.12666 34.513 9.46729 34.5345 10.2213 34.5354C10.8117 34.5361 12.151 34.5753 13.1976 34.6224C14.2442 34.6696 15.6223 34.7096 16.2601 34.7114C16.8979 34.7132 17.9148 34.7402 18.5199 34.7714C19.1249 34.8026 20.8091 34.8547 22.2624 34.8873C23.7158 34.9199 25.0672 34.9621 25.2655 34.9811C25.4639 35.0001 26.5827 35.0336 27.752 35.0555L29.8777 35.0953L34.6646 39.8503L39.4515 44.6053L44.2293 39.8603L49.0072 35.1154L49.3587 35.0904C49.552 35.0767 50.7271 35.0384 51.97 35.0052C53.2128 34.9722 55.0325 34.9204 56.0137 34.8904C56.9949 34.8602 58.8681 34.8064 60.1764 34.7707C61.4847 34.735 63.7191 34.6669 65.1419 34.6194C66.5646 34.5719 68.185 34.5334 68.7426 34.5336C69.4525 34.534 69.7779 34.5128 69.8279 34.4632C69.915 34.3766 69.93 31.4912 69.8445 31.2678C69.8036 31.1609 69.642 31.0607 69.2052 30.8715C68.8837 30.7323 67.6573 30.1805 66.4799 29.6453C65.3024 29.1102 64.0313 28.5391 63.6552 28.3762C63.2791 28.2134 61.9812 27.628 60.7711 27.0755C59.5609 26.5229 57.7412 25.7004 56.7273 25.2478C54.2168 24.127 54.0766 24.0625 54.0998 24.0395C54.1199 24.0195 54.6717 24.2101 59.552 25.923C60.942 26.4108 62.1936 26.8227 62.3334 26.8382C62.6274 26.8709 63.3824 26.7034 63.5094 26.5772C63.5799 26.5072 63.5957 26.2425 63.5957 25.1384C63.5957 23.7999 63.5943 23.7842 63.4619 23.6994C63.3884 23.6521 62.726 23.4915 61.9901 23.3424C60.5579 23.0521 59.9005 22.9129 56.6976 22.2218C55.5692 21.9783 53.9235 21.632 53.0404 21.4523C52.1573 21.2725 50.9932 21.0282 50.4536 20.9092C49.0979 20.6105 49.1948 20.6178 48.9776 20.7993L48.7885 20.9574V19.7755C48.7885 19.1254 48.7732 18.5538 48.7544 18.5051C48.7251 18.4294 48.6587 18.4374 48.2935 18.5609C47.8162 18.7223 46.4517 19.0148 45.726 19.1113C44.0674 19.332 42.5553 19.4262 40.255 19.4525C37.225 19.4871 35.2237 19.3847 33.1784 19.0903C31.237 18.8109 30.6183 18.6719 30.2507 18.4326L30.1159 18.3449V19.7187ZM33.4187 20.0309C34.8979 20.2312 36.9525 20.3658 39.0231 20.3981C40.1772 20.4161 41.1116 20.4405 41.0998 20.4523C41.0879 20.4641 40.6789 20.5184 40.1908 20.5729C39.5809 20.6411 38.7924 20.6727 37.6682 20.6743C35.7831 20.677 34.7776 20.5675 33.3918 20.2087C32.2658 19.9173 32.2721 19.8756 33.4187 20.0309ZM38.6581 22.5862C38.5958 23.4823 38.5672 25.6257 38.526 32.4665C38.5041 36.1217 38.4689 39.2453 38.4477 39.4077L38.4094 39.7031L38.253 39.4668C38.1002 39.2361 38.0957 39.2013 38.0598 37.9899C38.0396 37.3076 37.9965 36.1911 37.9639 35.5088C37.8804 33.7579 37.796 31.7723 37.7 29.3059C37.6545 28.1363 37.5987 27.1316 37.576 27.0734C37.5532 27.0151 37.5051 26.9773 37.4689 26.9893C37.4328 27.0012 37.184 28.0192 36.9159 29.2514C36.6478 30.4835 36.3217 31.9569 36.1912 32.5255C36.0606 33.0941 35.8932 33.8639 35.819 34.2361C35.5271 35.7017 35.6352 34.5991 36.2733 29.6013C36.4517 28.2042 36.6146 26.9481 36.6353 26.81C36.6579 26.6595 36.6495 26.559 36.6144 26.559C36.5067 26.559 36.3296 26.9845 34.6043 31.3893C34.2191 32.3728 33.8926 33.1661 33.8787 33.1522C33.8648 33.1384 33.9658 32.7059 34.1033 32.1912C34.2408 31.6766 34.4802 30.737 34.6353 30.1035C34.7904 29.4699 35.0778 28.3268 35.274 27.5632C35.6796 25.9845 35.7213 25.791 35.656 25.791C35.6026 25.791 34.9939 26.702 34.2941 27.8291C32.8124 30.2155 31.5992 32.1549 31.5293 32.2491C31.4553 32.3487 31.4255 32.3295 31.1312 31.9933L30.813 31.6299L33.339 27.8687C34.7283 25.7999 35.9235 24.0101 35.995 23.8912C36.0895 23.7343 36.3812 23.5083 37.0601 23.0662C38.004 22.4516 38.6207 22.0693 38.6683 22.0693C38.6824 22.0693 38.6779 22.3019 38.6581 22.5862ZM25.983 22.3384C25.9503 22.3513 24.639 22.7481 23.0691 23.2201C21.4992 23.6921 20.1682 24.1048 20.1114 24.1372C20.0547 24.1695 19.9442 24.196 19.866 24.196C19.7878 24.196 19.6905 24.2359 19.6497 24.2846C19.609 24.3333 19.502 24.3732 19.4119 24.3732C19.3218 24.3732 19.217 24.4104 19.179 24.4559C19.1207 24.5257 19.0223 24.5097 18.544 24.3532L17.9779 24.168L18.9773 23.9153C19.5271 23.7764 20.0838 23.6414 20.2147 23.6153C20.3455 23.5892 20.5061 23.5392 20.5715 23.504C20.6369 23.469 20.8726 23.4209 21.0954 23.3973C21.4202 23.3629 21.4936 23.3369 21.4662 23.266C21.4333 23.1809 21.4616 23.1796 21.7013 23.2551C21.7341 23.2654 22.2826 23.1484 22.9204 22.9949C25.0503 22.4826 26.2918 22.2165 25.983 22.3384ZM26.2974 23.018C26.2413 23.0505 25.1575 23.5326 23.889 24.0895C21.2694 25.2394 21.2293 25.2502 20.512 25.0041L20.0957 24.8613L20.3336 24.7945C20.4644 24.7579 21.856 24.3309 23.4259 23.8459C24.9958 23.3608 26.3071 22.9629 26.3398 22.9615C26.3725 22.9601 26.3534 22.9855 26.2974 23.018ZM58.6897 23.3419C60.4674 23.7247 62.2375 24.1312 62.3767 24.1886C62.4676 24.2261 62.3976 24.2548 62.0793 24.3104C61.2599 24.4536 59.6969 24.6681 59.4925 24.6654C59.2952 24.6628 59.3082 24.6506 59.7408 24.4309C59.9919 24.3033 60.2126 24.1744 60.2312 24.1444C60.268 24.0852 60.0029 23.984 58.2735 23.3967C57.652 23.1856 57.2105 23.0265 57.2923 23.043C57.374 23.0595 58.0029 23.194 58.6897 23.3419ZM31.0941 23.3027C31.0631 23.3313 28.4954 24.8827 25.3883 26.7505C22.2811 28.6183 19.5294 30.2729 19.2734 30.4275C18.6849 30.7829 18.7241 30.8419 19.5486 30.8419H20.1552L22.6825 29.3995C24.0726 28.6061 25.7317 27.6653 26.3695 27.3088C27.0073 26.9522 28.0242 26.3756 28.6292 26.0272C29.8163 25.3439 30.0595 25.2124 29.9672 25.3037C29.9345 25.3361 28.1015 26.5789 25.8938 28.0656C23.6861 29.5524 21.8543 30.7919 21.8233 30.8201C21.6833 30.9473 21.986 30.9929 23.5466 31.0798C26.6646 31.2533 26.3616 31.2684 19.6795 31.2728L13.0787 31.2772L13.4057 31.1312C13.5856 31.051 17.6264 29.2481 22.3852 27.1246C27.1441 25.0012 31.0631 23.261 31.0941 23.2574C31.1298 23.2532 31.1298 23.2699 31.0941 23.3027ZM45.455 27.2383C47.0644 29.1878 48.4815 30.8958 48.6039 31.0339C48.8107 31.2673 48.8477 31.285 49.1285 31.285C49.2946 31.285 50.0152 31.3367 50.73 31.4C51.4447 31.4632 52.5379 31.5433 53.1593 31.5778C54.5486 31.6552 58.3645 31.8711 58.6897 31.8908C58.8206 31.8987 57.6833 31.9524 56.1624 32.01C49.9787 32.2444 49.0142 32.2964 48.7588 32.4094C48.6268 32.4678 47.874 33.0952 47.0678 33.8187C46.2686 34.5358 45.6047 35.1126 45.5923 35.1004C45.556 35.0643 46.1033 34.0893 46.2931 33.852C46.389 33.732 46.4505 33.6064 46.4296 33.5729C46.4087 33.5393 46.4357 33.4798 46.4897 33.4407C46.5946 33.3645 47.5117 31.9383 47.5669 31.7656C47.5888 31.6969 47.205 31.0502 46.4204 29.8343C42.4547 23.6881 42.3453 23.5165 42.4676 23.6348C42.5011 23.6673 43.8455 25.2889 45.455 27.2383ZM56.3545 26.8558C59.7473 28.4916 62.5142 29.8388 62.5033 29.8496C62.4925 29.8604 61.9778 29.7071 61.3597 29.5089C60.7416 29.3107 59.7542 29.0071 59.1655 28.8344C57.4535 28.3321 55.9108 27.8561 55.6974 27.7643C55.5887 27.7175 54.5317 26.994 53.3484 26.1564C52.1651 25.3188 50.9694 24.4775 50.6914 24.287C50.2143 23.96 49.9878 23.786 50.1265 23.8529C50.1592 23.8687 52.9618 25.22 56.3545 26.8558Z" fill="black"/>
<path fill-rule="evenodd" clip-rule="evenodd" d="M51.0515 0.496059C50.0781 1.62787 47.665 2.55859 42.296 3.87289C37.3976 5.07205 35.127 5.96632 33.5436 7.32014C32.6419 8.09106 31.8391 9.35207 31.5613 10.4337C31.285 11.51 31.2712 13.0564 31.5293 14.0224C31.9874 15.7365 33.1278 17.113 34.7721 17.9364C35.1648 18.1331 35.7029 18.3224 35.7463 18.2791C35.7637 18.262 35.7011 18.1113 35.6074 17.9444C35.1872 17.1964 35.037 16.2176 35.207 15.3369C35.2572 15.077 35.3305 14.7846 35.37 14.6871L35.4417 14.5099L35.489 14.6576C35.515 14.7388 35.5832 14.961 35.6407 15.1515C35.8536 15.8563 36.5811 16.6661 37.0014 16.6661C37.1514 16.6661 37.1634 16.6508 37.1299 16.5037C37.1095 16.4143 37.0532 16.1684 37.0048 15.9572C36.8727 15.3804 36.8289 14.4605 36.9092 13.9487C36.9985 13.3797 37.2621 12.6202 37.5169 12.1977C37.7827 11.7568 38.4514 11.049 38.9007 10.7328C39.2647 10.4766 39.7172 10.227 39.8177 10.227C39.8474 10.227 39.7831 10.4862 39.675 10.8029C39.5668 11.1197 39.45 11.5869 39.4153 11.841C39.3189 12.5483 39.3359 14.5515 39.4422 14.9991C39.5455 15.4346 39.7259 15.8101 39.8553 15.8594C39.9289 15.8875 39.9473 15.8453 39.9482 15.6452C39.9561 13.9671 40.9237 12.2905 42.481 11.2562C43.1113 10.8376 43.6621 10.5858 45.3784 9.93147C48.1298 8.88248 48.9917 8.41024 49.9994 7.39936C51.1566 6.2386 51.7411 5.06094 51.9106 3.54851C51.9701 3.01802 51.9655 2.81291 51.8793 2.17148C51.7904 1.50895 51.5181 0.475677 51.3744 0.255329C51.338 0.199503 51.2502 0.265018 51.0515 0.496059ZM54.8137 5.78159C53.5158 8.04091 51.905 9.14366 47.5885 10.7282C45.1642 11.6181 44.0219 12.1395 42.9716 12.8355C41.2407 13.9825 40.6043 15.0212 40.602 16.7024C40.6011 17.3864 40.6585 17.8168 40.7951 18.1491L40.8755 18.345L41.1508 17.8308C41.7806 16.6547 42.6299 15.8662 44.0328 15.1551C44.7699 14.7815 45.2363 14.6111 47.7372 13.8023C50.0993 13.0383 50.6502 12.8315 51.681 12.3212C52.5316 11.9003 53.0466 11.5537 53.625 11.0131C54.9829 9.74421 55.6258 7.81371 55.3303 5.89319C55.281 5.57282 55.2182 5.28856 55.1907 5.2615C55.1633 5.23444 54.9936 5.4685 54.8137 5.78159ZM51.5728 14.0994C50.5551 14.6611 49.2194 15.077 46.7262 15.6085C45.3135 15.9097 44.0068 16.3344 43.3366 16.7101C42.7377 17.046 42.2068 17.5985 42.2068 17.886C42.2068 18.0503 42.1879 18.047 42.5021 17.9369C42.8465 17.8162 44.4069 17.4883 46.0126 17.1991C46.7485 17.0666 47.7107 16.8645 48.1507 16.75C50.1482 16.2301 51.4107 15.4477 51.9758 14.3794C52.3205 13.7277 52.2876 13.7048 51.5728 14.0994Z" fill="#FF000A"/>
<path d="M6.33984 50.4688V51.7402H2.4375V59H0.832031V50.4688H6.33984ZM13.1602 57.7344V59H8.625V57.7344H13.1602ZM9.11719 50.4688V59H7.50586V50.4688H9.11719ZM12.5684 53.9902V55.2266H8.625V53.9902H12.5684ZM13.1426 50.4688V51.7402H8.625V50.4688H13.1426ZM17.5605 55.8887H15.3633V54.623H17.5605C17.9199 54.623 18.2109 54.5645 18.4336 54.4473C18.6602 54.3262 18.8262 54.1621 18.9316 53.9551C19.0371 53.7441 19.0898 53.5039 19.0898 53.2344C19.0898 52.9727 19.0371 52.7285 18.9316 52.502C18.8262 52.2754 18.6602 52.0918 18.4336 51.9512C18.2109 51.8105 17.9199 51.7402 17.5605 51.7402H15.8906V59H14.2793V50.4688H17.5605C18.2246 50.4688 18.791 50.5879 19.2598 50.8262C19.7324 51.0605 20.0918 51.3867 20.3379 51.8047C20.5879 52.2188 20.7129 52.6914 20.7129 53.2227C20.7129 53.7734 20.5879 54.248 20.3379 54.6465C20.0918 55.0449 19.7324 55.3516 19.2598 55.5664C18.791 55.7812 18.2246 55.8887 17.5605 55.8887ZM28.8867 54.5176V54.957C28.8867 55.6016 28.8008 56.1816 28.6289 56.6973C28.457 57.209 28.2129 57.6445 27.8965 58.0039C27.5801 58.3633 27.2031 58.6387 26.7656 58.8301C26.3281 59.0215 25.8418 59.1172 25.3066 59.1172C24.7793 59.1172 24.2949 59.0215 23.8535 58.8301C23.416 58.6387 23.0371 58.3633 22.7168 58.0039C22.3965 57.6445 22.1484 57.209 21.9727 56.6973C21.7969 56.1816 21.709 55.6016 21.709 54.957V54.5176C21.709 53.8691 21.7969 53.2891 21.9727 52.7773C22.1484 52.2656 22.3945 51.8301 22.7109 51.4707C23.0273 51.1074 23.4043 50.8301 23.8418 50.6387C24.2832 50.4473 24.7676 50.3516 25.2949 50.3516C25.8301 50.3516 26.3164 50.4473 26.7539 50.6387C27.1914 50.8301 27.5684 51.1074 27.8848 51.4707C28.2051 51.8301 28.4512 52.2656 28.623 52.7773C28.7988 53.2891 28.8867 53.8691 28.8867 54.5176ZM27.2578 54.957V54.5059C27.2578 54.041 27.2148 53.6328 27.1289 53.2812C27.043 52.9258 26.916 52.627 26.748 52.3848C26.5801 52.1426 26.373 51.9609 26.127 51.8398C25.8809 51.7148 25.6035 51.6523 25.2949 51.6523C24.9824 51.6523 24.7051 51.7148 24.4629 51.8398C24.2246 51.9609 24.0215 52.1426 23.8535 52.3848C23.6855 52.627 23.5566 52.9258 23.4668 53.2812C23.3809 53.6328 23.3379 54.041 23.3379 54.5059V54.957C23.3379 55.418 23.3809 55.8262 23.4668 56.1816C23.5566 56.5371 23.6855 56.8379 23.8535 57.084C24.0254 57.3262 24.2324 57.5098 24.4746 57.6348C24.7168 57.7598 24.9941 57.8223 25.3066 57.8223C25.6191 57.8223 25.8965 57.7598 26.1387 57.6348C26.3809 57.5098 26.584 57.3262 26.748 57.084C26.916 56.8379 27.043 56.5371 27.1289 56.1816C27.2148 55.8262 27.2578 55.418 27.2578 54.957ZM31.8281 56.4219L35.4316 50.4688H37.0488V59H35.4316V53.0469L31.8281 59H30.2168V50.4688H31.8281V56.4219ZM44.332 55.3965L41.1211 50.4688H43.1074L45.1055 53.9844H46.6113L46.3945 55.3965H44.332ZM45.1113 55.168L42.9844 59H40.9746L43.8574 54.1602L45.1113 55.168ZM47.6133 50.4688V59H46.0078V50.4688H47.6133ZM52.4355 50.4688L49.2598 55.3965H47.2148L46.998 53.9844H48.4863L50.4434 50.4688H52.4355ZM50.5723 59L48.4863 55.168L49.7461 54.1602L52.582 59H50.5723ZM54.9961 56.4219L58.5996 50.4688H60.2168V59H58.5996V53.0469L54.9961 59H53.3848V50.4688H54.9961V56.4219ZM65.127 55.1973H62.9473L62.9355 54.0605H64.8047C65.125 54.0605 65.3926 54.0156 65.6074 53.9258C65.8223 53.8359 65.9844 53.7051 66.0938 53.5332C66.207 53.3613 66.2637 53.1523 66.2637 52.9062C66.2637 52.6328 66.2109 52.4102 66.1055 52.2383C66.0039 52.0664 65.8438 51.9414 65.625 51.8633C65.4062 51.7812 65.1289 51.7402 64.793 51.7402H63.4688V59H61.8574V50.4688H64.793C65.2773 50.4688 65.709 50.5156 66.0879 50.6094C66.4707 50.6992 66.7949 50.8398 67.0605 51.0312C67.3262 51.2227 67.5273 51.4629 67.6641 51.752C67.8047 52.041 67.875 52.3848 67.875 52.7832C67.875 53.1348 67.793 53.459 67.6289 53.7559C67.4688 54.0488 67.2207 54.2871 66.8848 54.4707C66.5527 54.6543 66.1309 54.7598 65.6191 54.7871L65.127 55.1973ZM65.0566 59H62.4727L63.1465 57.7344H65.0566C65.377 57.7344 65.6406 57.6816 65.8477 57.5762C66.0586 57.4707 66.2148 57.3262 66.3164 57.1426C66.4219 56.9551 66.4746 56.7402 66.4746 56.498C66.4746 56.2324 66.4277 56.002 66.334 55.8066C66.2441 55.6113 66.0996 55.4609 65.9004 55.3555C65.7051 55.25 65.4473 55.1973 65.127 55.1973H63.4512L63.4629 54.0605H65.5957L65.9648 54.5C66.457 54.5039 66.8574 54.6016 67.166 54.793C67.4785 54.9844 67.709 55.2305 67.8574 55.5312C68.0059 55.832 68.0801 56.1562 68.0801 56.5039C68.0801 57.0508 67.9609 57.5098 67.7227 57.8809C67.4883 58.252 67.1445 58.5312 66.6914 58.7188C66.2422 58.9062 65.6973 59 65.0566 59ZM70.5762 53.6621H72.6445C73.3047 53.6621 73.8711 53.7734 74.3438 53.9961C74.8164 54.2148 75.1777 54.5215 75.4277 54.916C75.6816 55.3105 75.8086 55.7734 75.8086 56.3047C75.8086 56.7031 75.7363 57.0664 75.5918 57.3945C75.4512 57.7227 75.2441 58.0078 74.9707 58.25C74.6973 58.4883 74.3652 58.6738 73.9746 58.8066C73.584 58.9355 73.1406 59 72.6445 59H69.4922V50.4688H71.1152V57.7344H72.6445C72.9961 57.7344 73.2871 57.668 73.5176 57.5352C73.748 57.4023 73.9199 57.2266 74.0332 57.0078C74.1465 56.7891 74.2031 56.5508 74.2031 56.293C74.2031 56.0391 74.1465 55.8086 74.0332 55.6016C73.9199 55.3945 73.748 55.2305 73.5176 55.1094C73.2871 54.9883 72.9961 54.9277 72.6445 54.9277H70.5762V53.6621ZM78.2402 50.4688V59H76.6289V50.4688H78.2402Z" fill="#D62D30"/>
</svg>
