<svg width="20" height="20" viewBox="0 0 20 20" fill="none" xmlns="http://www.w3.org/2000/svg">
<path d="M17.994 6.00247C17.899 5.6503 17.7135 5.32914 17.4559 5.07094C17.1983 4.81274 16.8776 4.62652 16.5256 4.5308C15.2206 4.17247 9.99979 4.16663 9.99979 4.16663C9.99979 4.16663 4.77979 4.1608 3.47395 4.5033C3.12222 4.60342 2.80214 4.79228 2.54442 5.05174C2.28671 5.31121 2.10002 5.63257 2.00229 5.98497C1.65812 7.28997 1.65479 9.99663 1.65479 9.99663C1.65479 9.99663 1.65145 12.7166 1.99312 14.0083C2.18479 14.7225 2.74729 15.2866 3.46229 15.4791C4.78062 15.8375 9.98729 15.8433 9.98729 15.8433C9.98729 15.8433 15.2081 15.8491 16.5131 15.5075C16.8652 15.4119 17.1862 15.2261 17.4445 14.9685C17.7027 14.7108 17.8893 14.3902 17.9856 14.0383C18.3306 12.7341 18.3331 10.0283 18.3331 10.0283C18.3331 10.0283 18.3498 7.30747 17.994 6.00247V6.00247ZM8.32979 12.5041L8.33395 7.50413L12.6731 10.0083L8.32979 12.5041V12.5041Z" fill="#878787"/>
</svg>
