<svg width="20" height="20" viewBox="0 0 20 20" fill="none" xmlns="http://www.w3.org/2000/svg">
<path fill-rule="evenodd" clip-rule="evenodd" d="M10.04 14.36H10.84C10.84 14.36 11.08 14.32 11.2 14.2C11.32 14.08 11.32 13.84 11.32 13.84C11.32 13.84 11.32 12.8 11.8 12.64C12.28 12.48 12.92 13.68 13.56 14.12C14.04 14.48 14.4 14.4 14.4 14.4L16.16 14.36C16.16 14.36 17.08 14.32 16.64 13.56C16.6 13.52 16.4 13.04 15.32 12.04C14.2 11 14.36 11.2 15.68 9.39997C16.48 8.31997 16.8 7.67997 16.72 7.35997C16.64 7.07997 16.04 7.15997 16.04 7.15997H14.04C14.04 7.15997 13.88 7.11997 13.8 7.19997C13.68 7.27997 13.64 7.39997 13.64 7.39997C13.64 7.39997 13.32 8.23997 12.92 8.95996C12.04 10.44 11.68 10.52 11.56 10.44C11.24 10.24 11.32 9.55996 11.32 9.11996C11.32 7.67997 11.56 7.07997 10.88 6.91997C10.68 6.87997 10.52 6.83997 9.96001 6.83997C9.24001 6.83997 8.64001 6.83997 8.32001 6.99997C8.08001 7.11997 7.92001 7.35997 8.04001 7.35997C8.16001 7.35997 8.48001 7.43997 8.64001 7.63997C8.80001 7.99997 8.80001 8.59997 8.80001 8.59997C8.80001 8.59997 8.92001 10.32 8.52001 10.52C8.24001 10.68 7.88001 10.36 7.08001 8.99996C6.68001 8.31997 6.36001 7.51997 6.36001 7.51997C6.36001 7.51997 6.32001 7.35997 6.20001 7.27997C6.08001 7.19997 5.88001 7.15997 5.88001 7.15997H4.00001C4.00001 7.15997 3.72001 7.15997 3.60001 7.27997C3.52001 7.39997 3.60001 7.59997 3.60001 7.59997C3.60001 7.59997 5.08001 11.04 6.76001 12.8C8.32001 14.48 10.04 14.36 10.04 14.36Z" fill="#878787"/>
</svg>
