<svg width="16" height="15" viewBox="0 0 16 15" fill="none" xmlns="http://www.w3.org/2000/svg">
<path d="M14.0926 10.4776C14.0207 10.4227 13.9464 10.3659 13.8768 10.3098C13.5075 10.0127 13.1148 9.73881 12.7349 9.47393C12.656 9.41901 12.5772 9.36405 12.4987 9.30894C12.0121 8.96714 11.5746 8.80105 11.1613 8.80105C10.6046 8.80105 10.1192 9.10864 9.71863 9.71517C9.54115 9.98407 9.32583 10.1148 9.06048 10.1148C8.90357 10.1148 8.72528 10.07 8.53063 9.98168C6.95998 9.26942 5.83843 8.17739 5.19708 6.7359C4.88704 6.0392 4.98755 5.58378 5.53318 5.21314C5.84303 5.00284 6.41975 4.61134 6.3789 3.86163C6.33264 3.01027 4.45416 0.448618 3.66269 0.157671C3.32759 0.0344413 2.9755 0.0332931 2.61433 0.1548C1.70446 0.460673 1.05152 0.997841 0.725943 1.70813C0.411316 2.39446 0.425523 3.20033 0.767035 4.03863C1.75431 6.46237 3.14236 8.57554 4.89278 10.3194C6.60613 12.0264 8.71198 13.4247 11.1518 14.4752C11.3717 14.5699 11.6024 14.6215 11.7708 14.6591C11.8282 14.672 11.8778 14.6831 11.9139 14.693C11.9337 14.6984 11.9542 14.7013 11.9747 14.7015L11.994 14.7016C11.9941 14.7016 11.994 14.7016 11.9941 14.7016C13.1416 14.7016 14.5195 13.653 14.9427 12.4575C15.3134 11.4107 14.6365 10.8933 14.0926 10.4776Z" fill="#4149F2"/>
</svg>
